<mxfile host="Electron" agent="Mozilla/5.0 (Windows NT 10.0; Win64; x64) AppleWebKit/537.36 (KHTML, like Gecko) draw.io/26.1.1 Chrome/132.0.6834.210 Electron/34.3.3 Safari/537.36" version="26.1.1">
  <diagram name="Page-1" id="2YBvvXClWsGukQMizWep">
    <mxGraphModel dx="1440" dy="811" grid="1" gridSize="10" guides="1" tooltips="1" connect="1" arrows="1" fold="1" page="1" pageScale="1" pageWidth="850" pageHeight="1100" math="0" shadow="0">
      <root>
        <mxCell id="0" />
        <mxCell id="1" parent="0" />
        <mxCell id="aM9ryv3xv72pqoxQDRHE-1" value="anOrder:Order" style="shape=umlLifeline;perimeter=lifelinePerimeter;whiteSpace=wrap;html=1;container=0;dropTarget=0;collapsible=0;recursiveResize=0;outlineConnect=0;portConstraint=eastwest;newEdgeStyle={&quot;edgeStyle&quot;:&quot;elbowEdgeStyle&quot;,&quot;elbow&quot;:&quot;vertical&quot;,&quot;curved&quot;:0,&quot;rounded&quot;:0};" parent="1" vertex="1">
          <mxGeometry x="260" y="40" width="100" height="300" as="geometry" />
        </mxCell>
        <mxCell id="aM9ryv3xv72pqoxQDRHE-2" value="" style="html=1;points=[];perimeter=orthogonalPerimeter;outlineConnect=0;targetShapes=umlLifeline;portConstraint=eastwest;newEdgeStyle={&quot;edgeStyle&quot;:&quot;elbowEdgeStyle&quot;,&quot;elbow&quot;:&quot;vertical&quot;,&quot;curved&quot;:0,&quot;rounded&quot;:0};" parent="aM9ryv3xv72pqoxQDRHE-1" vertex="1">
          <mxGeometry x="45" y="70" width="10" height="190" as="geometry" />
        </mxCell>
        <mxCell id="aM9ryv3xv72pqoxQDRHE-5" value="buyer:Buyer" style="shape=umlLifeline;perimeter=lifelinePerimeter;whiteSpace=wrap;html=1;container=0;dropTarget=0;collapsible=0;recursiveResize=0;outlineConnect=0;portConstraint=eastwest;newEdgeStyle={&quot;edgeStyle&quot;:&quot;elbowEdgeStyle&quot;,&quot;elbow&quot;:&quot;vertical&quot;,&quot;curved&quot;:0,&quot;rounded&quot;:0};" parent="1" vertex="1">
          <mxGeometry x="440" y="40" width="100" height="300" as="geometry" />
        </mxCell>
        <mxCell id="aM9ryv3xv72pqoxQDRHE-6" value="" style="html=1;points=[];perimeter=orthogonalPerimeter;outlineConnect=0;targetShapes=umlLifeline;portConstraint=eastwest;newEdgeStyle={&quot;edgeStyle&quot;:&quot;elbowEdgeStyle&quot;,&quot;elbow&quot;:&quot;vertical&quot;,&quot;curved&quot;:0,&quot;rounded&quot;:0};" parent="aM9ryv3xv72pqoxQDRHE-5" vertex="1">
          <mxGeometry x="45" y="80" width="10" height="60" as="geometry" />
        </mxCell>
        <mxCell id="aM9ryv3xv72pqoxQDRHE-7" value="LookUpBuyer(userid)" style="html=1;verticalAlign=bottom;endArrow=block;edgeStyle=elbowEdgeStyle;elbow=vertical;curved=0;rounded=0;" parent="1" edge="1">
          <mxGeometry relative="1" as="geometry">
            <mxPoint x="315" y="150" as="sourcePoint" />
            <Array as="points">
              <mxPoint x="400" y="150" />
            </Array>
            <mxPoint x="485" y="150" as="targetPoint" />
          </mxGeometry>
        </mxCell>
        <mxCell id="hSenDdpzGNT74my3AxYJ-3" value="" style="shape=umlLifeline;perimeter=lifelinePerimeter;whiteSpace=wrap;html=1;container=1;dropTarget=0;collapsible=0;recursiveResize=0;outlineConnect=0;portConstraint=eastwest;newEdgeStyle={&quot;curved&quot;:0,&quot;rounded&quot;:0};participant=umlActor;" vertex="1" parent="1">
          <mxGeometry x="-50" y="40" width="20" height="300" as="geometry" />
        </mxCell>
        <mxCell id="hSenDdpzGNT74my3AxYJ-5" value="RequestOrder(userid, artworkid)" style="html=1;verticalAlign=bottom;endArrow=block;curved=0;rounded=0;" edge="1" parent="1">
          <mxGeometry width="80" relative="1" as="geometry">
            <mxPoint x="-40.5" y="120" as="sourcePoint" />
            <mxPoint x="309.5" y="120" as="targetPoint" />
          </mxGeometry>
        </mxCell>
        <mxCell id="hSenDdpzGNT74my3AxYJ-6" value="buyer" style="text;html=1;align=center;verticalAlign=middle;resizable=0;points=[];autosize=1;strokeColor=none;fillColor=none;" vertex="1" parent="1">
          <mxGeometry x="-65" y="78" width="50" height="30" as="geometry" />
        </mxCell>
        <mxCell id="hSenDdpzGNT74my3AxYJ-7" value="Make Order Use case" style="shape=umlFrame;whiteSpace=wrap;html=1;pointerEvents=0;width=160;height=20;" vertex="1" parent="1">
          <mxGeometry x="-90" width="1000" height="380" as="geometry" />
        </mxCell>
        <mxCell id="hSenDdpzGNT74my3AxYJ-8" value="" style="html=1;points=[];perimeter=orthogonalPerimeter;outlineConnect=0;targetShapes=umlLifeline;portConstraint=eastwest;newEdgeStyle={&quot;edgeStyle&quot;:&quot;elbowEdgeStyle&quot;,&quot;elbow&quot;:&quot;vertical&quot;,&quot;curved&quot;:0,&quot;rounded&quot;:0};" vertex="1" parent="1">
          <mxGeometry x="-45" y="108" width="10" height="190" as="geometry" />
        </mxCell>
        <mxCell id="hSenDdpzGNT74my3AxYJ-12" value="artwork:ArtWork" style="shape=umlLifeline;perimeter=lifelinePerimeter;whiteSpace=wrap;html=1;container=0;dropTarget=0;collapsible=0;recursiveResize=0;outlineConnect=0;portConstraint=eastwest;newEdgeStyle={&quot;edgeStyle&quot;:&quot;elbowEdgeStyle&quot;,&quot;elbow&quot;:&quot;vertical&quot;,&quot;curved&quot;:0,&quot;rounded&quot;:0};" vertex="1" parent="1">
          <mxGeometry x="590" y="40" width="100" height="300" as="geometry" />
        </mxCell>
        <mxCell id="hSenDdpzGNT74my3AxYJ-14" value="LookUpArtwork(artworkid)" style="html=1;verticalAlign=bottom;endArrow=block;edgeStyle=elbowEdgeStyle;elbow=vertical;curved=0;rounded=0;" edge="1" parent="1" source="hSenDdpzGNT74my3AxYJ-13" target="hSenDdpzGNT74my3AxYJ-12">
          <mxGeometry relative="1" as="geometry">
            <mxPoint x="320" y="202.5" as="sourcePoint" />
            <Array as="points">
              <mxPoint x="405" y="202.5" />
            </Array>
            <mxPoint x="490" y="202.5" as="targetPoint" />
          </mxGeometry>
        </mxCell>
        <mxCell id="hSenDdpzGNT74my3AxYJ-15" value="" style="html=1;verticalAlign=bottom;endArrow=block;edgeStyle=elbowEdgeStyle;elbow=vertical;curved=0;rounded=0;" edge="1" parent="1" target="hSenDdpzGNT74my3AxYJ-12">
          <mxGeometry relative="1" as="geometry">
            <mxPoint x="320" y="202.5" as="sourcePoint" />
            <Array as="points" />
            <mxPoint x="640" y="203" as="targetPoint" />
          </mxGeometry>
        </mxCell>
        <mxCell id="hSenDdpzGNT74my3AxYJ-13" value="" style="html=1;points=[];perimeter=orthogonalPerimeter;outlineConnect=0;targetShapes=umlLifeline;portConstraint=eastwest;newEdgeStyle={&quot;edgeStyle&quot;:&quot;elbowEdgeStyle&quot;,&quot;elbow&quot;:&quot;vertical&quot;,&quot;curved&quot;:0,&quot;rounded&quot;:0};" vertex="1" parent="1">
          <mxGeometry x="635" y="173" width="10" height="60" as="geometry" />
        </mxCell>
        <mxCell id="hSenDdpzGNT74my3AxYJ-19" value="" style="html=1;points=[[0,0,0,0,5],[0,1,0,0,-5],[1,0,0,0,5],[1,1,0,0,-5]];perimeter=orthogonalPerimeter;outlineConnect=0;targetShapes=umlLifeline;portConstraint=eastwest;newEdgeStyle={&quot;curved&quot;:0,&quot;rounded&quot;:0};" vertex="1" parent="1">
          <mxGeometry x="310" y="240" width="10" height="40" as="geometry" />
        </mxCell>
        <mxCell id="hSenDdpzGNT74my3AxYJ-20" value="matchOrder(artwork,user)" style="html=1;align=left;spacingLeft=2;endArrow=block;rounded=0;edgeStyle=orthogonalEdgeStyle;curved=0;rounded=0;" edge="1" target="hSenDdpzGNT74my3AxYJ-19" parent="1">
          <mxGeometry relative="1" as="geometry">
            <mxPoint x="315" y="220" as="sourcePoint" />
            <Array as="points">
              <mxPoint x="345" y="250" />
            </Array>
          </mxGeometry>
        </mxCell>
        <mxCell id="hSenDdpzGNT74my3AxYJ-21" value="newOrder()" style="html=1;verticalAlign=bottom;endArrow=block;curved=0;rounded=0;" edge="1" parent="1" source="aM9ryv3xv72pqoxQDRHE-1" target="hSenDdpzGNT74my3AxYJ-3">
          <mxGeometry width="80" relative="1" as="geometry">
            <mxPoint x="300" y="200" as="sourcePoint" />
            <mxPoint x="380" y="200" as="targetPoint" />
          </mxGeometry>
        </mxCell>
        <mxCell id="hSenDdpzGNT74my3AxYJ-22" value="" style="html=1;points=[[0,0,0,0,5],[0,1,0,0,-5],[1,0,0,0,5],[1,1,0,0,-5]];perimeter=orthogonalPerimeter;outlineConnect=0;targetShapes=umlLifeline;portConstraint=eastwest;newEdgeStyle={&quot;curved&quot;:0,&quot;rounded&quot;:0};" vertex="1" parent="1">
          <mxGeometry x="490" y="140" width="10" height="30" as="geometry" />
        </mxCell>
        <mxCell id="hSenDdpzGNT74my3AxYJ-23" value="isBuyerAvaliable()" style="html=1;align=left;spacingLeft=2;endArrow=block;rounded=0;edgeStyle=orthogonalEdgeStyle;curved=0;rounded=0;" edge="1" target="hSenDdpzGNT74my3AxYJ-22" parent="1">
          <mxGeometry relative="1" as="geometry">
            <mxPoint x="495" y="120" as="sourcePoint" />
            <Array as="points">
              <mxPoint x="525" y="150" />
            </Array>
          </mxGeometry>
        </mxCell>
        <mxCell id="hSenDdpzGNT74my3AxYJ-27" value="" style="html=1;points=[[0,0,0,0,5],[0,1,0,0,-5],[1,0,0,0,5],[1,1,0,0,-5]];perimeter=orthogonalPerimeter;outlineConnect=0;targetShapes=umlLifeline;portConstraint=eastwest;newEdgeStyle={&quot;curved&quot;:0,&quot;rounded&quot;:0};" vertex="1" parent="1">
          <mxGeometry x="640" y="195" width="10" height="25" as="geometry" />
        </mxCell>
        <mxCell id="hSenDdpzGNT74my3AxYJ-28" value="lockArtwork()" style="html=1;align=left;spacingLeft=2;endArrow=block;rounded=0;edgeStyle=orthogonalEdgeStyle;curved=0;rounded=0;" edge="1" target="hSenDdpzGNT74my3AxYJ-27" parent="1">
          <mxGeometry relative="1" as="geometry">
            <mxPoint x="645" y="175" as="sourcePoint" />
            <Array as="points">
              <mxPoint x="675" y="205" />
            </Array>
          </mxGeometry>
        </mxCell>
      </root>
    </mxGraphModel>
  </diagram>
</mxfile>
